<svg width="30" height="30" viewBox="0 0 30 30" fill="none" xmlns="http://www.w3.org/2000/svg">
<g clip-path="url(#clip0_61_230)">
<path d="M14.2852 19.9102C13.6465 20.5488 12.6035 20.5488 11.9648 19.9102L8.21484 16.1602C7.57617 15.5215 7.57617 14.4785 8.21484 13.8398C8.85352 13.2012 9.89648 13.2012 10.5352 13.8398L13.125 16.4297L19.4648 10.0898C20.1035 9.45117 21.1465 9.45117 21.7852 10.0898C22.4238 10.7285 22.4238 11.7715 21.7852 12.4102L14.2852 19.9102ZM30 15C30 23.2852 23.2852 30 15 30C6.71484 30 0 23.2852 0 15C0 6.71484 6.71484 0 15 0C23.2852 0 30 6.71484 30 15ZM15 2.8125C8.26758 2.8125 2.8125 8.26758 2.8125 15C2.8125 21.7324 8.26758 27.1875 15 27.1875C21.7324 27.1875 27.1875 21.7324 27.1875 15C27.1875 8.26758 21.7324 2.8125 15 2.8125Z" fill="#ACAAAA"/>
</g>
<defs>
<clipPath id="clip0_61_230">
<rect width="30" height="30" fill="white"/>
</clipPath>
</defs>
</svg>
