<svg width="40" height="40" viewBox="0 0 40 40" fill="none" xmlns="http://www.w3.org/2000/svg">
<g clip-path="url(#clip0_58_127)">
<path d="M40 6.25C40 7.65625 38.8828 8.95312 37 10C34.7266 11.2578 31.3359 12.1484 27.4453 12.4141C27.1562 12.2734 26.8672 12.1406 26.5625 12.0234C23.4844 10.7344 19.3906 10 15 10C14.3516 10 13.7188 10.0156 13.0859 10.0469L13 10C11.1172 8.95312 10 7.65625 10 6.25C10 2.79688 16.7188 0 25 0C33.2812 0 40 2.79688 40 6.25ZM12.5547 12.5859C13.3516 12.5313 14.1719 12.5 15 12.5C19.8594 12.5 24.1719 13.4609 26.9141 14.9531C28.8516 16.0078 30 17.3203 30 18.75C30 19.0625 29.9453 19.3672 29.8359 19.6641C29.4766 20.6953 28.5078 21.6406 27.1016 22.4375C27.0938 22.4453 27.0781 22.4453 27.0703 22.4531C27.0469 22.4688 27.0234 22.4766 27 22.4922C24.2656 24.0078 19.9062 24.9922 15 24.9922C10.3438 24.9922 6.17969 24.1094 3.42188 22.7188C3.27344 22.6484 3.13281 22.5703 2.99219 22.4922C1.11719 21.4531 0 20.1562 0 18.75C0 16.0312 4.17188 13.7109 10 12.8594C10.8203 12.7422 11.6719 12.6484 12.5547 12.5859ZM32.5 18.75C32.5 17.0391 31.6719 15.6328 30.6172 14.5781C32.8281 14.2344 34.8516 13.6875 36.5703 12.9766C37.8438 12.4453 39.0312 11.7891 40 10.9844V13.75C40 15.2578 38.7109 16.6484 36.5781 17.7266C35.4375 18.3047 34.0469 18.7969 32.4844 19.1719C32.4922 19.0312 32.5 18.8984 32.5 18.7578V18.75ZM30 26.25C30 27.6562 28.8828 28.9531 27 30C26.8594 30.0781 26.7188 30.1484 26.5703 30.2266C23.8203 31.6172 19.6562 32.5 15 32.5C10.0938 32.5 5.73438 31.5156 3 30C1.11719 28.9531 0 27.6562 0 26.25V23.4844C0.976562 24.2891 2.15625 24.9453 3.42969 25.4766C6.51562 26.7656 10.6094 27.5 15 27.5C19.3906 27.5 23.4844 26.7656 26.5703 25.4766C27.1797 25.2266 27.7656 24.9375 28.3203 24.625C28.7969 24.3594 29.2422 24.0625 29.6641 23.75C29.7812 23.6641 29.8906 23.5703 30 23.4844V23.75V24.1953V26.25ZM32.5 26.25V23.75V21.7266C33.9844 21.3984 35.3516 20.9844 36.5703 20.4766C37.8438 19.9453 39.0312 19.2891 40 18.4844V21.25C40 22.0703 39.6094 22.8906 38.8359 23.6641C37.5625 24.9375 35.3203 25.9844 32.4844 26.6641C32.4922 26.5312 32.5 26.3906 32.5 26.25ZM15 35C19.3906 35 23.4844 34.2656 26.5703 32.9766C27.8438 32.4453 29.0312 31.7891 30 30.9844V33.75C30 37.2031 23.2812 40 15 40C6.71875 40 0 37.2031 0 33.75V30.9844C0.976562 31.7891 2.15625 32.4453 3.42969 32.9766C6.51562 34.2656 10.6094 35 15 35Z" fill="black"/>
</g>
<defs>
<clipPath id="clip0_58_127">
<rect width="40" height="40" fill="white"/>
</clipPath>
</defs>
</svg>
