<svg width="29" height="39" viewBox="0 0 29 39" fill="none" xmlns="http://www.w3.org/2000/svg">
<path d="M16.2898 37.7C20.1641 32.8516 29 21.1005 29 14.5C29 6.49479 22.5052 0 14.5 0C6.49479 0 0 6.49479 0 14.5C0 21.1005 8.83594 32.8516 12.7102 37.7C13.6391 38.8555 15.3609 38.8555 16.2898 37.7ZM14.5 9.66667C15.7819 9.66667 17.0113 10.1759 17.9177 11.0823C18.8241 11.9887 19.3333 13.2181 19.3333 14.5C19.3333 15.7819 18.8241 17.0113 17.9177 17.9177C17.0113 18.8241 15.7819 19.3333 14.5 19.3333C13.2181 19.3333 11.9887 18.8241 11.0823 17.9177C10.1759 17.0113 9.66667 15.7819 9.66667 14.5C9.66667 13.2181 10.1759 11.9887 11.0823 11.0823C11.9887 10.1759 13.2181 9.66667 14.5 9.66667Z" fill="#905923"/>
</svg>
