<svg width="40" height="40" viewBox="0 0 40 40" fill="none" xmlns="http://www.w3.org/2000/svg">
<path d="M5 10.3047C5 8.75781 6.25781 7.5 7.80469 7.5C8.54688 7.5 9.25781 7.79688 9.78906 8.32031L11.0547 9.58594C9.41406 12.625 9.69531 16.4219 11.9062 19.1953L11.7969 19.2969C11.0625 20.0312 11.0625 21.2188 11.7969 21.9453C12.5312 22.6719 13.7187 22.6797 14.4453 21.9453L26.9531 9.45312C27.6875 8.71875 27.6875 7.53125 26.9531 6.80469C26.2188 6.07812 25.0312 6.07031 24.3047 6.80469L24.2031 6.90625C21.4297 4.69531 17.6328 4.41406 14.5938 6.05469L13.3203 4.78906C11.8594 3.32031 9.875 2.5 7.80469 2.5C3.49219 2.5 0 5.99219 0 10.3047V35C0 36.3828 1.11719 37.5 2.5 37.5C3.88281 37.5 5 36.3828 5 35V10.3047ZM20 27.5C20.663 27.5 21.2989 27.2366 21.7678 26.7678C22.2366 26.2989 22.5 25.663 22.5 25C22.5 24.337 22.2366 23.7011 21.7678 23.2322C21.2989 22.7634 20.663 22.5 20 22.5C19.337 22.5 18.7011 22.7634 18.2322 23.2322C17.7634 23.7011 17.5 24.337 17.5 25C17.5 25.663 17.7634 26.2989 18.2322 26.7678C18.7011 27.2366 19.337 27.5 20 27.5ZM25 32.5C25 31.837 24.7366 31.2011 24.2678 30.7322C23.7989 30.2634 23.163 30 22.5 30C21.837 30 21.2011 30.2634 20.7322 30.7322C20.2634 31.2011 20 31.837 20 32.5C20 33.163 20.2634 33.7989 20.7322 34.2678C21.2011 34.7366 21.837 35 22.5 35C23.163 35 23.7989 34.7366 24.2678 34.2678C24.7366 33.7989 25 33.163 25 32.5ZM25 22.5C25.663 22.5 26.2989 22.2366 26.7678 21.7678C27.2366 21.2989 27.5 20.663 27.5 20C27.5 19.337 27.2366 18.7011 26.7678 18.2322C26.2989 17.7634 25.663 17.5 25 17.5C24.337 17.5 23.7011 17.7634 23.2322 18.2322C22.7634 18.7011 22.5 19.337 22.5 20C22.5 20.663 22.7634 21.2989 23.2322 21.7678C23.7011 22.2366 24.337 22.5 25 22.5ZM30 27.5C30 26.837 29.7366 26.2011 29.2678 25.7322C28.7989 25.2634 28.163 25 27.5 25C26.837 25 26.2011 25.2634 25.7322 25.7322C25.2634 26.2011 25 26.837 25 27.5C25 28.163 25.2634 28.7989 25.7322 29.2678C26.2011 29.7366 26.837 30 27.5 30C28.163 30 28.7989 29.7366 29.2678 29.2678C29.7366 28.7989 30 28.163 30 27.5ZM30 17.5C30.663 17.5 31.2989 17.2366 31.7678 16.7678C32.2366 16.2989 32.5 15.663 32.5 15C32.5 14.337 32.2366 13.7011 31.7678 13.2322C31.2989 12.7634 30.663 12.5 30 12.5C29.337 12.5 28.7011 12.7634 28.2322 13.2322C27.7634 13.7011 27.5 14.337 27.5 15C27.5 15.663 27.7634 16.2989 28.2322 16.7678C28.7011 17.2366 29.337 17.5 30 17.5ZM35 22.5C35 21.837 34.7366 21.2011 34.2678 20.7322C33.7989 20.2634 33.163 20 32.5 20C31.837 20 31.2011 20.2634 30.7322 20.7322C30.2634 21.2011 30 21.837 30 22.5C30 23.163 30.2634 23.7989 30.7322 24.2678C31.2011 24.7366 31.837 25 32.5 25C33.163 25 33.7989 24.7366 34.2678 24.2678C34.7366 23.7989 35 23.163 35 22.5ZM37.5 20C38.163 20 38.7989 19.7366 39.2678 19.2678C39.7366 18.7989 40 18.163 40 17.5C40 16.837 39.7366 16.2011 39.2678 15.7322C38.7989 15.2634 38.163 15 37.5 15C36.837 15 36.2011 15.2634 35.7322 15.7322C35.2634 16.2011 35 16.837 35 17.5C35 18.163 35.2634 18.7989 35.7322 19.2678C36.2011 19.7366 36.837 20 37.5 20Z" fill="black"/>
</svg>
