<svg width="40" height="40" viewBox="0 0 40 40" fill="none" xmlns="http://www.w3.org/2000/svg">
<g clip-path="url(#clip0_58_137)">
<path d="M7.5 2.5V10H17.5V2.5C17.5 1.11719 16.3828 0 15 0H10C8.61719 0 7.5 1.11719 7.5 2.5ZM7.5 12.5C3.35938 12.5 0 15.8594 0 20V36.25C0 38.3203 1.67969 40 3.75 40H21.25C23.3203 40 25 38.3203 25 36.25V20C25 15.8594 21.6406 12.5 17.5 12.5H7.5ZM12.5 20C14.1576 20 15.7473 20.6585 16.9194 21.8306C18.0915 23.0027 18.75 24.5924 18.75 26.25C18.75 27.9076 18.0915 29.4973 16.9194 30.6694C15.7473 31.8415 14.1576 32.5 12.5 32.5C10.8424 32.5 9.25268 31.8415 8.08058 30.6694C6.90848 29.4973 6.25 27.9076 6.25 26.25C6.25 24.5924 6.90848 23.0027 8.08058 21.8306C9.25268 20.6585 10.8424 20 12.5 20ZM30 3.75C30 3.64062 29.9219 3.51563 29.8281 3.46875L27.5 2.5L26.5312 0.171875C26.4844 0.078125 26.3594 0 26.25 0C26.1406 0 26.0156 0.078125 25.9688 0.171875L25 2.5L22.6719 3.46875C22.5781 3.51563 22.5 3.64062 22.5 3.75C22.5 3.85938 22.5781 3.98437 22.6719 4.03125L25 5L25.9688 7.32812C26.0156 7.42188 26.1406 7.5 26.25 7.5C26.3594 7.5 26.4844 7.42188 26.5312 7.32812L27.5 5L29.8281 4.03125C29.9219 3.98437 30 3.85938 30 3.75ZM35.9688 7.32812C36.0156 7.42188 36.1406 7.5 36.25 7.5C36.3594 7.5 36.4844 7.42188 36.5312 7.32812L37.5 5L39.8281 4.03125C39.9219 3.98437 40 3.85938 40 3.75C40 3.64062 39.9219 3.51563 39.8281 3.46875L37.5 2.5L36.5312 0.171875C36.4844 0.078125 36.3594 0 36.25 0C36.1406 0 36.0156 0.078125 35.9688 0.171875L35 2.5L32.6719 3.46875C32.5781 3.51563 32.5 3.64062 32.5 3.75C32.5 3.85938 32.5781 3.98437 32.6719 4.03125L35 5L35.9688 7.32812ZM36.5312 15.1719C36.4844 15.0781 36.3594 15 36.25 15C36.1406 15 36.0156 15.0781 35.9688 15.1719L35 17.5L32.6719 18.4688C32.5781 18.5156 32.5 18.6406 32.5 18.75C32.5 18.8594 32.5781 18.9844 32.6719 19.0312L35 20L35.9688 22.3281C36.0156 22.4219 36.1406 22.5 36.25 22.5C36.3594 22.5 36.4844 22.4219 36.5312 22.3281L37.5 20L39.8281 19.0312C39.9219 18.9844 40 18.8594 40 18.75C40 18.6406 39.9219 18.5156 39.8281 18.4688L37.5 17.5L36.5312 15.1719ZM35 11.25C35 11.1406 34.9219 11.0156 34.8281 10.9688L32.5 10L31.5312 7.67188C31.4844 7.57812 31.3594 7.5 31.25 7.5C31.1406 7.5 31.0156 7.57812 30.9688 7.67188L30 10L27.6719 10.9688C27.5781 11.0156 27.5 11.1406 27.5 11.25C27.5 11.3594 27.5781 11.4844 27.6719 11.5312L30 12.5L30.9688 14.8281C31.0156 14.9219 31.1406 15 31.25 15C31.3594 15 31.4844 14.9219 31.5312 14.8281L32.5 12.5L34.8281 11.5312C34.9219 11.4844 35 11.3594 35 11.25Z" fill="black"/>
</g>
<defs>
<clipPath id="clip0_58_137">
<rect width="40" height="40" fill="white"/>
</clipPath>
</defs>
</svg>
