<svg width="12" height="11" viewBox="0 0 12 11" fill="none" xmlns="http://www.w3.org/2000/svg">
<g clip-path="url(#clip0_45_108)">
<path d="M6.60202 0.375C6.49161 0.145833 6.25827 0 6.00202 0C5.74577 0 5.51452 0.145833 5.40202 0.375L4.06244 3.13125L1.07077 3.57292C0.820772 3.61042 0.612439 3.78542 0.535356 4.025C0.458272 4.26458 0.520772 4.52917 0.699939 4.70625L2.87077 6.85417L2.35827 9.88958C2.31661 10.1396 2.42077 10.3938 2.62702 10.5417C2.83327 10.6896 3.10619 10.7083 3.33119 10.5896L6.00411 9.1625L8.67702 10.5896C8.90202 10.7083 9.17494 10.6917 9.38119 10.5417C9.58744 10.3917 9.69161 10.1396 9.64994 9.88958L9.13536 6.85417L11.3062 4.70625C11.4854 4.52917 11.5499 4.26458 11.4708 4.025C11.3916 3.78542 11.1854 3.61042 10.9354 3.57292L7.94161 3.13125L6.60202 0.375Z" fill="#FFD900"/>
</g>
<defs>
<clipPath id="clip0_45_108">
<rect width="12" height="10.6667" fill="white"/>
</clipPath>
</defs>
</svg>
