<svg width="12" height="11" viewBox="0 0 12 11" fill="none" xmlns="http://www.w3.org/2000/svg">
<g clip-path="url(#clip0_45_106)">
<path d="M5.99792 0C6.18959 0 6.36459 0.109375 6.44792 0.281667L7.87709 3.225L11.0708 3.69792C11.2583 3.725 11.4125 3.85625 11.4729 4.03542C11.5313 4.21667 11.4833 4.41458 11.35 4.54583L9.03334 6.84167L9.58126 10.0813C9.61251 10.2688 9.53543 10.4604 9.37918 10.5708C9.22501 10.6813 9.00209 10.6958 8.85209 10.6063L5.99792 9.08125L3.12709 10.6063C2.97709 10.6958 2.77292 10.6813 2.61667 10.5708C2.46251 10.4604 2.38542 10.2688 2.39792 10.0813L2.96251 6.84167L0.648133 4.54583C0.513549 4.41458 0.465841 4.21667 0.525008 4.03542C0.583966 3.85625 0.739591 3.725 0.926883 3.69792L4.11876 3.225L5.54792 0.281667C5.63334 0.109354 5.80626 0 5.99792 0ZM5.99792 1.64479L4.90417 3.9C4.83126 4.04792 4.68959 4.15208 4.52709 4.17708L2.06209 4.53958L3.85209 6.3125C3.96667 6.42708 4.01876 6.59167 3.99167 6.75208L3.57084 9.24375L5.76251 8.07292C5.91042 7.99375 6.08751 7.99375 6.23334 8.07292L8.42501 9.24375L8.00417 6.75208C7.97709 6.59167 8.03126 6.42708 8.14584 6.3125L9.93542 4.53958L7.47084 4.17708C7.30626 4.15208 7.16459 4.04792 7.09376 3.9L5.99792 1.64479Z" fill="black"/>
</g>
<defs>
<clipPath id="clip0_45_106">
<rect width="12" height="10.6667" fill="white"/>
</clipPath>
</defs>
</svg>
