<svg width="50" height="40" viewBox="0 0 50 40" fill="none" xmlns="http://www.w3.org/2000/svg">
<path d="M33.4532 0C29.7814 3.875 28.7501 9.88281 28.7501 15C28.7501 27.4062 26.6173 34.2969 25.4142 37.1797C24.6329 39.0547 22.8204 40 21.086 40H2.5001C1.60166 40 0.765726 39.5156 0.328226 38.7344C-0.109274 37.9531 -0.109274 36.9922 0.359476 36.2188C1.1251 34.8359 1.5626 33.2344 1.96104 31.7109C2.83604 28.3438 3.7501 22.9297 3.7501 15C3.7501 6.71875 7.10948 0 11.2501 0H33.4532ZM38.7501 30C34.6095 30 31.2501 23.2812 31.2501 15C31.2501 6.71875 34.6095 0 38.7501 0C42.8907 0 46.2501 6.71875 46.2501 15C46.2501 23.2812 42.8907 30 38.7501 30ZM38.7501 20C40.1329 20 41.2501 17.7578 41.2501 15C41.2501 12.2422 40.1329 10 38.7501 10C37.3673 10 36.2501 12.2422 36.2501 15C36.2501 17.7578 37.3673 20 38.7501 20ZM10.0001 16.25C10.0001 15.9185 9.8684 15.6005 9.63398 15.3661C9.39956 15.1317 9.08162 15 8.7501 15C8.41858 15 8.10064 15.1317 7.86622 15.3661C7.6318 15.6005 7.5001 15.9185 7.5001 16.25C7.5001 16.5815 7.6318 16.8995 7.86622 17.1339C8.10064 17.3683 8.41858 17.5 8.7501 17.5C9.08162 17.5 9.39956 17.3683 9.63398 17.1339C9.8684 16.8995 10.0001 16.5815 10.0001 16.25ZM15.0001 16.25C15.0001 15.9185 14.8684 15.6005 14.634 15.3661C14.3996 15.1317 14.0816 15 13.7501 15C13.4186 15 13.1006 15.1317 12.8662 15.3661C12.6318 15.6005 12.5001 15.9185 12.5001 16.25C12.5001 16.5815 12.6318 16.8995 12.8662 17.1339C13.1006 17.3683 13.4186 17.5 13.7501 17.5C14.0816 17.5 14.3996 17.3683 14.634 17.1339C14.8684 16.8995 15.0001 16.5815 15.0001 16.25ZM18.7501 17.5C19.0816 17.5 19.3996 17.3683 19.634 17.1339C19.8684 16.8995 20.0001 16.5815 20.0001 16.25C20.0001 15.9185 19.8684 15.6005 19.634 15.3661C19.3996 15.1317 19.0816 15 18.7501 15C18.4186 15 18.1006 15.1317 17.8662 15.3661C17.6318 15.6005 17.5001 15.9185 17.5001 16.25C17.5001 16.5815 17.6318 16.8995 17.8662 17.1339C18.1006 17.3683 18.4186 17.5 18.7501 17.5ZM25.0001 16.25C25.0001 15.9185 24.8684 15.6005 24.634 15.3661C24.3996 15.1317 24.0816 15 23.7501 15C23.4186 15 23.1006 15.1317 22.8662 15.3661C22.6318 15.6005 22.5001 15.9185 22.5001 16.25C22.5001 16.5815 22.6318 16.8995 22.8662 17.1339C23.1006 17.3683 23.4186 17.5 23.7501 17.5C24.0816 17.5 24.3996 17.3683 24.634 17.1339C24.8684 16.8995 25.0001 16.5815 25.0001 16.25Z" fill="black"/>
</svg>
