<svg width="35" height="40" viewBox="0 0 35 40" fill="none" xmlns="http://www.w3.org/2000/svg">
<g clip-path="url(#clip0_58_129)">
<path d="M1.875 0C0.835938 0 0 0.835938 0 1.875C0 2.91406 0.835938 3.75 1.875 3.75H2.5V15.3828C2.35156 15.4922 2.20312 15.6094 2.0625 15.7266C0.851562 16.7578 0 18.1953 0 20C0 23.6641 1.11719 26.5703 2.89062 28.7891C4 30.1719 5.32031 31.2344 6.67969 32.0547L5.125 36.7109C4.86719 37.4766 5 38.3125 5.46875 38.9609C5.9375 39.6094 6.69531 40 7.5 40H27.5C28.3047 40 29.0547 39.6172 29.5312 38.9609C30.0078 38.3047 30.1328 37.4688 29.875 36.7109L28.3281 32.0625C29.6875 31.2422 31.0078 30.1797 32.1172 28.7969C33.8906 26.5781 35.0078 23.6797 35.0078 20.0078C35.0078 18.2031 34.1562 16.7656 32.9453 15.7422C32.8047 15.625 32.6562 15.5078 32.5078 15.3984V3.75H33.1328C34.1719 3.75 35.0078 2.91406 35.0078 1.875C35.0078 0.835938 34.1719 0 33.1328 0H1.875ZM30 20.0234C30 20.1016 29.9766 20.2266 29.7031 20.4609C29.3281 20.7813 28.6094 21.1641 27.4141 21.5078C25.0391 22.1875 21.5703 22.5 17.5 22.5C13.4297 22.5 9.96094 22.1875 7.58594 21.5C6.39062 21.1563 5.67188 20.7734 5.29688 20.4531C5.02344 20.2188 5 20.0938 5 20.0156V19.9922V19.9844C5 19.9063 5 19.7891 5.29688 19.5313C5.67188 19.2109 6.39062 18.8281 7.58594 18.4844C9.96094 17.8125 13.4297 17.5 17.5 17.5C21.5703 17.5 25.0391 17.8125 27.4141 18.5C28.6094 18.8438 29.3281 19.2266 29.7031 19.5469C30 19.7969 30 19.9219 30 20V20.0078V20.0313V20.0234ZM25.6406 30L25.625 30.0391V30H25.6406ZM8.75 5H11.25C11.9375 5 12.5 5.5625 12.5 6.25C12.5 6.9375 11.9375 7.5 11.25 7.5H8.75C8.0625 7.5 7.5 6.9375 7.5 6.25C7.5 5.5625 8.0625 5 8.75 5Z" fill="black"/>
</g>
<defs>
<clipPath id="clip0_58_129">
<rect width="35" height="40" fill="white"/>
</clipPath>
</defs>
</svg>
