<svg width="30" height="30" viewBox="0 0 30 30" fill="none" xmlns="http://www.w3.org/2000/svg">
<g clip-path="url(#clip0_61_232)">
<path d="M10.2539 10.2539C10.8047 9.70898 11.6953 9.70898 12.1934 10.2539L14.9473 13.0137L17.7539 10.2539C18.3047 9.70898 19.1953 9.70898 19.6934 10.2539C20.291 10.8047 20.291 11.6953 19.6934 12.1934L16.9863 14.9473L19.6934 17.7539C20.291 18.3047 20.291 19.1953 19.6934 19.6934C19.1953 20.291 18.3047 20.291 17.7539 19.6934L14.9473 16.9863L12.1934 19.6934C11.6953 20.291 10.8047 20.291 10.2539 19.6934C9.70898 19.1953 9.70898 18.3047 10.2539 17.7539L13.0137 14.9473L10.2539 12.1934C9.70898 11.6953 9.70898 10.8047 10.2539 10.2539ZM30 15C30 23.2852 23.2852 30 15 30C6.71484 30 0 23.2852 0 15C0 6.71484 6.71484 0 15 0C23.2852 0 30 6.71484 30 15ZM15 2.8125C8.26758 2.8125 2.8125 8.26758 2.8125 15C2.8125 21.7324 8.26758 27.1875 15 27.1875C21.7324 27.1875 27.1875 21.7324 27.1875 15C27.1875 8.26758 21.7324 2.8125 15 2.8125Z" fill="#ACAAAA"/>
</g>
<defs>
<clipPath id="clip0_61_232">
<rect width="30" height="30" fill="white"/>
</clipPath>
</defs>
</svg>
