<svg width="200" height="200" viewBox="0 0 200 200" fill="none" xmlns="http://www.w3.org/2000/svg">
<rect width="200" height="200" rx="30" fill="black"/>
<path d="M23.625 52.25C23.7083 52.6667 23.5833 53 23.25 53.25C22.9167 53.4167 22.5 53.5417 22 53.625C21.5833 53.7083 21.125 53.7083 20.625 53.625C20.125 53.5417 19.75 53.4167 19.5 53.25C19.1667 52.6667 18.9583 52.25 18.875 52C18.875 51.6667 19.3333 51.4167 20.25 51.25C20.9167 51.0833 21.5833 51.0417 22.25 51.125C23 51.2083 23.4583 51.5833 23.625 52.25ZM17.375 51.75C17.5417 51.9167 17.6667 52.125 17.75 52.375C17.8333 52.625 17.7917 52.875 17.625 53.125C16.9583 53.5417 16.25 53.7917 15.5 53.875C14.8333 53.875 14.2917 54.0833 13.875 54.5C13.4583 54.8333 13.1667 55.2917 13 55.875C12.75 56.4583 12.5417 57.0833 12.375 57.75C12.375 57.9167 12.3333 58.125 12.25 58.375C12.0833 58.625 12 58.875 12 59.125C11.8333 59.875 11.7917 60.6667 11.875 61.5C11.9583 62.25 11.75 62.9167 11.25 63.5C10.75 63.3333 10.5 63.0417 10.5 62.625C10.5 62.2083 10.4167 61.7917 10.25 61.375C10.1667 61.0417 10.0417 60.75 9.875 60.5C9.70833 60.25 9.58333 59.9583 9.5 59.625C9.08333 58.2917 9.04167 57.0417 9.375 55.875C9.625 54.7083 10.1667 53.6667 11 52.75C11.9167 52.4167 12.8333 52.1667 13.75 52C14.75 51.75 15.9583 51.6667 17.375 51.75ZM107.875 65.875C107.708 66.375 107.5 66.8333 107.25 67.25C107 67.5833 106.708 67.9583 106.375 68.375C106.042 68.7083 105.75 69.125 105.5 69.625C105.25 70.0417 105.125 70.5417 105.125 71.125C104.458 71.7917 103.667 72.125 102.75 72.125C101.833 72.125 100.875 72.1667 99.875 72.25C99.4583 72.25 99.0417 72.3333 98.625 72.5C98.2917 72.5833 97.9167 72.6667 97.5 72.75C95.8333 72.75 94.125 72.7083 92.375 72.625C90.625 72.5417 88.875 72.5417 87.125 72.625C86.4583 72.875 85.6667 73 84.75 73C83.9167 72.9167 83.2083 72.9583 82.625 73.125C82.2917 74.2083 82.2083 75.3333 82.375 76.5C82.5417 77.5833 82.4167 78.625 82 79.625C81.8333 79.9583 81.625 80.2917 81.375 80.625C81.125 80.875 80.9167 81.1667 80.75 81.5C80.25 82.4167 79.75 83.5 79.25 84.75C78.75 86 78.625 87.3333 78.875 88.75C79.0417 89.4167 79.2083 90.0833 79.375 90.75C79.625 91.4167 79.9583 92.0417 80.375 92.625C81.0417 93.2083 81.4167 93.625 81.5 93.875C81.5833 94.0417 81.6667 94.2083 81.75 94.375C82 94.7917 82.2083 95.25 82.375 95.75C82.625 96.1667 82.7917 96.7083 82.875 97.375C82.9583 98.0417 83 98.75 83 99.5C83.0833 100.25 83.125 101.042 83.125 101.875C83.2083 102.375 83.25 102.917 83.25 103.5C83.25 104 83.25 104.458 83.25 104.875C83.1667 105.875 83.0833 106.458 83 106.625C82.9167 106.792 82.8333 106.958 82.75 107.125C82.6667 107.292 82.625 107.542 82.625 107.875C82.625 108.125 82.5833 108.333 82.5 108.5C82.3333 109 82.1667 109.667 82 110.5C81.8333 111.333 81.7917 112.125 81.875 112.875C81.875 113.292 81.875 113.75 81.875 114.25C81.9583 114.667 82.0833 115.083 82.25 115.5C82.3333 115.75 82.4583 116 82.625 116.25C82.7917 116.417 82.9167 116.625 83 116.875C82.9167 117.708 82.9167 118.25 83 118.5C83.0833 118.667 83.125 118.833 83.125 119C83.0417 120.25 83.0417 121.25 83.125 122C83.2083 122.667 83.1667 123.333 83 124C83.5 126.167 83.75 128.458 83.75 130.875C83.75 133.208 83.9167 135.458 84.25 137.625C84.4167 138.875 84.375 139.792 84.125 140.375C83.9583 140.875 84.0833 141.375 84.5 141.875C84.4167 142.375 84.3333 142.833 84.25 143.25C84.25 143.667 84.0417 144.083 83.625 144.5C83.2083 144.667 82.875 144.833 82.625 145C82.375 145.083 81.9583 145.083 81.375 145C80.9583 145 80.625 144.875 80.375 144.625C80.125 144.375 79.7917 144.25 79.375 144.25C79.0417 144.25 78.7083 144.333 78.375 144.5C78.0417 144.667 77.75 144.833 77.5 145C77.1667 145.167 76.8333 145.458 76.5 145.875C76.25 146.208 75.9167 146.458 75.5 146.625C74.8333 146.542 74.1667 146.583 73.5 146.75C72.9167 146.833 72.2917 146.875 71.625 146.875C71.125 146.875 70.5417 146.833 69.875 146.75C69.2917 146.667 68.6667 146.667 68 146.75C67.5833 146.833 67.1667 146.917 66.75 147C66.3333 147.083 65.9167 147.167 65.5 147.25C64.75 147.333 63.9583 147.333 63.125 147.25C62.375 147.25 61.6667 147.292 61 147.375C60.25 147.375 59.5 147.417 58.75 147.5C58 147.583 57.25 147.708 56.5 147.875C55.5 148.042 54.4583 148.083 53.375 148C52.375 147.917 51.375 147.875 50.375 147.875C49.875 147.875 49.4583 147.875 49.125 147.875C48.875 147.875 48.5417 147.792 48.125 147.625C46.875 147.042 46.125 146.542 45.875 146.125C45.7083 145.708 45.5 145.333 45.25 145C45.0833 144.583 44.7917 144.25 44.375 144C44.0417 143.667 43.5417 143.5 42.875 143.5C42.375 142.833 41.9583 142.375 41.625 142.125C41.2083 141.375 41 140.542 41 139.625C41 138.708 40.9583 137.792 40.875 136.875C40.875 135.708 40.7917 134.583 40.625 133.5C40.5417 132.333 40.4583 131.167 40.375 130C40.2917 129.417 40.2917 128.833 40.375 128.25C40.4583 127.667 40.5 127.083 40.5 126.5C40.4167 125.75 40.375 125 40.375 124.25C40.375 123.417 40.375 122.625 40.375 121.875C40.4583 121.458 40.5 121.042 40.5 120.625C40.5833 120.125 40.625 119.667 40.625 119.25C40.625 117 40.5417 114.792 40.375 112.625C40.2083 110.458 40.0833 108.292 40 106.125C40 104.875 40.0417 103.542 40.125 102.125C40.2917 100.625 40.5833 99.4167 41 98.5C41.1667 98.0833 41.3333 97.7083 41.5 97.375C41.6667 97.0417 41.8333 96.6667 42 96.25C42.25 95.5833 42.4583 94.7917 42.625 93.875C42.7917 92.875 42.6667 92.0417 42.25 91.375C42.0833 90.875 41.875 90.5 41.625 90.25C41.375 90 41.1667 89.75 41 89.5C40.5 88.5833 40.1667 87.5417 40 86.375C39.8333 85.125 39.7917 83.9167 39.875 82.75C40.0417 81 40.0833 79.6667 40 78.75C40 77.9167 40 77.0417 40 76.125C40.0833 75.2083 39.875 74.4167 39.375 73.75C38.7083 73.5833 38 73.5833 37.25 73.75C36.5833 73.9167 35.875 74 35.125 74C34.9583 74 34.75 73.9583 34.5 73.875C34.25 73.7917 34 73.75 33.75 73.75C33.5 73.75 33.25 73.7917 33 73.875C32.75 73.9583 32.5 74 32.25 74C31.8333 74.0833 31.5 74.0833 31.25 74C31 73.9167 30.7083 73.9167 30.375 74C30.125 74 29.8333 74.0417 29.5 74.125C29.25 74.2083 28.9583 74.25 28.625 74.25C28.125 74.3333 27.5833 74.375 27 74.375C26.5 74.2917 25.9583 74.2917 25.375 74.375C24.9583 74.375 24.5 74.4583 24 74.625C23.5833 74.7083 23.1667 74.75 22.75 74.75C21.5833 74.5 20.7917 74.4167 20.375 74.5C20.0417 74.5 19.6667 74.4583 19.25 74.375C18.6667 74.2083 18.1667 74.0833 17.75 74C17.3333 73.9167 16.875 73.8333 16.375 73.75C15.625 73.0833 15.2917 72.0833 15.375 70.75C15.4583 69.3333 15.4583 68.125 15.375 67.125C15.375 66.7917 15.3333 66.5 15.25 66.25C15.25 66 15.2083 65.7083 15.125 65.375C15.0417 64.375 14.9583 63.4583 14.875 62.625C14.875 61.7917 15 61 15.25 60.25C15.5833 59.25 15.9167 58.4583 16.25 57.875C16.6667 57.2083 17.25 56.6667 18 56.25C18.4167 56.25 18.7917 56.2083 19.125 56.125C19.4583 55.9583 19.8333 55.875 20.25 55.875C21.75 56.0417 22.7917 56.0417 23.375 55.875C23.9583 55.7083 24.5417 55.7917 25.125 56.125C26.7917 55.7083 28.4583 55.625 30.125 55.875C30.625 55.875 31.125 55.9583 31.625 56.125C32.125 56.2083 32.6667 56.2083 33.25 56.125C34.5 56.0417 35.8333 56 37.25 56C38.75 56 40.1667 55.9167 41.5 55.75C42.0833 55.6667 42.625 55.6667 43.125 55.75C43.7083 55.8333 44.25 55.875 44.75 55.875C45.5 55.7917 46.2917 55.7917 47.125 55.875C47.9583 55.9583 48.7083 56.2083 49.375 56.625C49.7917 56.4583 50.1667 56.4583 50.5 56.625C50.8333 56.7917 51.2083 56.9167 51.625 57C52.625 57 53.2083 57.0417 53.375 57.125C53.625 57.2083 53.8333 57.25 54 57.25C55.5 57.0833 56.625 56.9583 57.375 56.875C58.125 56.7917 58.8333 56.5417 59.5 56.125C60.4167 56.0417 61.375 56 62.375 56C63.375 56 64.25 55.7917 65 55.375C65.9167 55.2083 66.875 55.1667 67.875 55.25C68.875 55.25 69.875 55.2917 70.875 55.375C71.5417 55.4583 72.1667 55.4167 72.75 55.25C73.3333 55.0833 73.9583 55 74.625 55C75.0417 55 75.375 55.0417 75.625 55.125C75.875 55.2083 76.1667 55.25 76.5 55.25C77.5 55 78.2083 54.9583 78.625 55.125C79.125 55.2083 79.625 55.1667 80.125 55C80.2917 55.1667 80.4583 55.3333 80.625 55.5C80.7917 55.6667 80.9583 55.8333 81.125 56C81.5417 56.1667 81.9167 56.2917 82.25 56.375C82.5833 56.375 82.9583 56.4167 83.375 56.5C83.7083 56.5 84.0417 56.5833 84.375 56.75C84.7083 56.9167 85.125 56.9583 85.625 56.875C86.4583 56.375 86.9583 56.1667 87.125 56.25C87.2917 56.25 87.4583 56.2083 87.625 56.125C87.875 55.9583 88.0833 55.75 88.25 55.5C88.4167 55.1667 88.6667 54.9167 89 54.75C89.1667 54.6667 89.5 54.625 90 54.625C90.5 54.5417 90.875 54.5 91.125 54.5C91.5417 54.5 91.9167 54.5417 92.25 54.625C92.6667 54.625 93.0833 54.625 93.5 54.625C93.8333 54.625 94.125 54.5833 94.375 54.5C94.7083 54.3333 95.0417 54.2083 95.375 54.125C95.7917 54.125 96.125 54.1667 96.375 54.25C96.7083 54.3333 97.0417 54.375 97.375 54.375C98.375 54.2917 99.4167 54.1667 100.5 54C101.583 53.8333 102.542 54.0833 103.375 54.75C103.708 54.5833 103.958 54.5833 104.125 54.75C104.292 54.9167 104.5 55.0833 104.75 55.25C105.5 55.5833 105.958 56 106.125 56.5C106.292 56.9167 106.5 57.3333 106.75 57.75C107.333 59.25 107.667 60.7917 107.75 62.375C107.917 62.875 108 63.5 108 64.25C108 64.9167 107.958 65.4583 107.875 65.875ZM28.875 69C28.9583 68.75 29 68.5 29 68.25C29.0833 68 29.125 67.6667 29.125 67.25C28.7083 67 28.2917 66.9167 27.875 67C27.5417 67 27.1667 67.0833 26.75 67.25C26.3333 67.3333 25.9167 67.4167 25.5 67.5C25.0833 67.5833 24.7083 67.5417 24.375 67.375C24.125 67.125 23.9167 66.75 23.75 66.25C23.5833 65.75 23.375 65.2917 23.125 64.875C22.9583 64.375 22.7083 64 22.375 63.75C22.125 63.5 21.75 63.5 21.25 63.75C20.8333 63.9167 20.5833 64.2083 20.5 64.625C20.4167 65.0417 20.375 65.5 20.375 66C20.375 66.5 20.375 67.0417 20.375 67.625C20.375 68.125 20.3333 68.5417 20.25 68.875C20.8333 69.0417 21.3333 69.3333 21.75 69.75C22.1667 70.0833 22.6667 70.3333 23.25 70.5C24.1667 70.6667 25.0833 70.5 26 70C26.9167 69.4167 27.875 69.0833 28.875 69ZM38.125 68C38.2917 67.6667 38.3333 67.2917 38.25 66.875C38.25 66.375 38.0833 66.0833 37.75 66C37.1667 66.1667 36.5 66.4167 35.75 66.75C35 67 34.6667 67.5417 34.75 68.375C35.25 68.625 35.8333 68.7083 36.5 68.625C37.1667 68.4583 37.7083 68.25 38.125 68ZM59.5 142C59.5833 141.667 59.6667 141.375 59.75 141.125C59.8333 140.875 59.9167 140.583 60 140.25C59.75 139.833 59.4167 139.542 59 139.375C58.5833 139.208 58.125 138.958 57.625 138.625C56.9583 138.458 56.375 138.542 55.875 138.875C55.375 139.208 54.875 139.375 54.375 139.375C53.625 139.292 53 139 52.5 138.5C52.0833 137.917 51.4167 137.708 50.5 137.875C50 138.042 49.625 138.375 49.375 138.875C49.2083 139.375 49.2917 139.917 49.625 140.5C49.875 140.833 50.2083 141.125 50.625 141.375C51.125 141.625 51.5833 141.917 52 142.25C52.25 142.417 52.4167 142.625 52.5 142.875C52.6667 143.042 52.875 143.167 53.125 143.25C53.4583 143.417 53.7917 143.458 54.125 143.375C54.5417 143.292 54.8333 143.25 55 143.25C55.6667 142.917 56.4167 142.75 57.25 142.75C58.0833 142.667 58.8333 142.417 59.5 142ZM76.375 110.625C75.875 110.208 75.4583 110.333 75.125 111C74.875 111.583 74.8333 112.208 75 112.875C75.6667 113.458 76.0833 113.625 76.25 113.375C76.5 113.125 76.6667 112.833 76.75 112.5C76.8333 112.167 76.8333 111.833 76.75 111.5C76.6667 111.083 76.5417 110.792 76.375 110.625ZM77.375 131.375C77.625 129.208 77.5 127.125 77 125.125C76.5833 123.042 76.2917 121.042 76.125 119.125C75.875 118.875 75.5417 118.625 75.125 118.375C74.7917 118.125 74.4583 118 74.125 118C73.4583 118 73.0417 118.417 72.875 119.25C72.7917 120.083 72.8333 120.875 73 121.625C73.0833 122.375 73.125 123.125 73.125 123.875C73.2083 124.625 73.3333 125.375 73.5 126.125C73.8333 127.542 73.9583 128.667 73.875 129.5C73.7917 130.25 73.8333 130.958 74 131.625C74.0833 132.042 74.2917 132.583 74.625 133.25C75.0417 133.917 75.4167 134.25 75.75 134.25C76.25 134.25 76.625 133.875 76.875 133.125C77.125 132.375 77.2917 131.792 77.375 131.375ZM100.25 64.125C101 64.125 101.542 63.8333 101.875 63.25C102.208 62.5833 102.333 61.9167 102.25 61.25C102.083 60.5 102 60.0833 102 60C102.083 59.9167 102.083 59.7917 102 59.625C101.917 59.2083 101.625 58.875 101.125 58.625C100.708 58.375 100.208 58.2917 99.625 58.375C99.2083 58.4583 98.7083 58.5417 98.125 58.625C97.625 58.7083 97.2917 58.7917 97.125 58.875C96.4583 59.2917 96.2083 59.8333 96.375 60.5C96.625 61.1667 96.9583 61.7083 97.375 62.125C98.2917 62.0417 98.8333 62.3333 99 63C99.1667 63.6667 99.5833 64.0417 100.25 64.125ZM111.25 64.75C111.333 65.4167 111.292 66.2917 111.125 67.375C110.958 68.375 110.958 69.4167 111.125 70.5C111.292 71.0833 111.375 71.7917 111.375 72.625C111.458 73.375 111.292 73.9583 110.875 74.375C110.625 74.5417 110.333 74.75 110 75C109.75 75.25 109.458 75.5 109.125 75.75C108.875 75.9167 108.583 76.1667 108.25 76.5C107.917 76.75 107.583 76.875 107.25 76.875C106.833 76.875 106.375 76.75 105.875 76.5C105.375 76.25 104.917 76.1667 104.5 76.25C104.25 76.3333 104 76.4583 103.75 76.625C103.5 76.7917 103.292 76.8333 103.125 76.75C102.708 76.75 102.417 76.5 102.25 76C102.083 75.4167 102.083 74.9167 102.25 74.5C102.583 74.4167 102.833 74.25 103 74C103.25 73.75 103.542 73.5833 103.875 73.5C104.292 73.4167 104.625 73.4583 104.875 73.625C105.208 73.7083 105.583 73.7083 106 73.625C106.333 73.5417 106.625 73.4583 106.875 73.375C107.208 73.2083 107.458 73.0417 107.625 72.875C108.208 72.4583 108.708 71.875 109.125 71.125C109.625 70.375 109.875 69.5833 109.875 68.75C109.875 68.0833 109.792 67.4167 109.625 66.75C109.458 66 109.375 65.1667 109.375 64.25C109.542 64.0833 109.667 63.875 109.75 63.625C109.833 63.375 109.958 63.1667 110.125 63C110.542 62.9167 110.833 63.0833 111 63.5C111.167 63.9167 111.25 64.3333 111.25 64.75ZM88.25 98.625C88.0833 99.0417 87.7083 99.3333 87.125 99.5C86.5417 99.5833 86.125 99.4167 85.875 99C85.7917 97.8333 85.7083 96.7083 85.625 95.625C85.625 94.5417 85.5 93.5 85.25 92.5C84.5 92.1667 83.9583 91.625 83.625 90.875C83.2917 90.125 83.0833 89.3333 83 88.5C82.9167 87.5833 82.9583 86.6667 83.125 85.75C83.375 84.8333 83.7083 84.0833 84.125 83.5C84.2083 82.8333 84.3333 82.2917 84.5 81.875C84.6667 81.375 84.7917 80.7083 84.875 79.875C84.875 79.375 84.875 78.9167 84.875 78.5C84.875 78 85.0417 77.5417 85.375 77.125C86.2083 77.2083 86.7083 77.5833 86.875 78.25C87.125 78.9167 87.2083 79.75 87.125 80.75C87.0417 81 86.9583 81.25 86.875 81.5C86.7917 81.6667 86.75 81.875 86.75 82.125C86.6667 82.7917 86.6667 83.4583 86.75 84.125C86.9167 84.7083 86.9583 85.25 86.875 85.75C87.4583 87.6667 87.6667 89.4583 87.5 91.125C87.4167 92.7917 87.5 94.4583 87.75 96.125C87.8333 96.5417 87.9167 96.9583 88 97.375C88.1667 97.7917 88.25 98.2083 88.25 98.625ZM87.625 105.375C87.125 105.375 86.75 105.125 86.5 104.625C86.3333 104.125 86.2917 103.583 86.375 103C86.4583 102.417 86.6667 101.958 87 101.625C87.3333 101.292 87.7917 101.375 88.375 101.875C88.7917 102.292 88.9167 102.958 88.75 103.875C88.6667 104.792 88.2917 105.292 87.625 105.375ZM44.5 150.125C45 150.458 45.5417 150.583 46.125 150.5C46.7917 150.417 47.3333 150.708 47.75 151.375C46.25 152.208 45 152.542 44 152.375C43.0833 152.208 42.25 152.042 41.5 151.875C41.0833 151.708 40.5833 151.375 40 150.875C39.5 150.375 39.1667 149.917 39 149.5C38.5 148.583 38.1667 147.625 38 146.625C37.9167 145.542 37.5417 144.625 36.875 143.875C37.0417 143.542 37.0417 143.208 36.875 142.875C36.7917 142.542 37.0833 142.417 37.75 142.5C38.0833 143.167 38.5417 143.667 39.125 144C39.7083 144.333 39.9583 145.042 39.875 146.125C40.2917 146.292 40.6667 146.458 41 146.625C41.4167 146.708 41.75 146.833 42 147C42.4167 147.333 42.6667 147.708 42.75 148.125C42.9167 148.542 43.1667 148.917 43.5 149.25L44.5 150.125ZM54.125 151.125C54.875 150.958 55.5 150.792 56 150.625C56.5833 150.458 57.2083 150.458 57.875 150.625C58.375 151.125 58.4167 151.542 58 151.875C57.6667 152.292 57.125 152.583 56.375 152.75C55.7083 152.917 54.9583 152.958 54.125 152.875C53.2917 152.875 52.7083 152.75 52.375 152.5C51.9583 152.667 51.5417 152.708 51.125 152.625C50.7083 152.542 50.2917 152.417 49.875 152.25C49.7917 151.667 49.9583 151.375 50.375 151.375C50.875 151.375 51.3333 151.333 51.75 151.25C52.1667 151.25 52.5833 151.25 53 151.25C53.4167 151.25 53.7917 151.208 54.125 151.125ZM184.875 65.875C185.292 65.7083 185.667 65.9583 186 66.625C186.417 67.2083 186.583 67.7083 186.5 68.125C186.417 68.625 186.042 68.9583 185.375 69.125C184.792 69.2917 184.292 69.2083 183.875 68.875C183.625 68.2083 183.583 67.5417 183.75 66.875C183.917 66.2083 183.917 65.5417 183.75 64.875C183.25 63.9583 183 63.4583 183 63.375C183.083 63.2083 183.083 63.0417 183 62.875C182.583 61.9583 182.375 61.25 182.375 60.75C182.458 60.25 182.292 59.8333 181.875 59.5C181.292 59.75 180.792 59.8333 180.375 59.75C180.042 59.6667 179.667 59.625 179.25 59.625C178.75 59.5417 178.208 59.625 177.625 59.875C177.042 60.0417 176.458 60.2083 175.875 60.375C175.375 60.4583 174.875 60.4583 174.375 60.375C173.958 60.2917 173.625 59.9167 173.375 59.25C173.375 58.6667 173.583 58.2083 174 57.875C174.417 57.4583 174.875 57.1667 175.375 57C175.958 56.75 176.542 56.625 177.125 56.625C177.792 56.625 178.375 56.6667 178.875 56.75C180.292 56.3333 181.583 56.375 182.75 56.875C184 57.2917 184.875 58.0833 185.375 59.25C185.542 60.3333 185.458 61.4583 185.125 62.625C184.875 63.7083 184.792 64.7917 184.875 65.875ZM115.375 65.125C115.042 64.9583 114.75 64.8333 114.5 64.75C114.25 64.5833 114.083 64.3333 114 64C113.917 63.5833 114.042 63.2917 114.375 63.125C114.708 62.9583 115 62.75 115.25 62.5C115.667 62.5833 116.125 62.5 116.625 62.25C117.125 62 117.625 61.875 118.125 61.875C118.542 61.875 119 61.9583 119.5 62.125C120 62.2917 120.458 62.375 120.875 62.375C121.292 62.375 121.708 62.2917 122.125 62.125C122.542 61.9583 122.958 61.875 123.375 61.875C124.792 61.9583 125.792 61.9583 126.375 61.875C127.042 61.7917 127.75 61.75 128.5 61.75C127.917 62.75 127.208 63.2083 126.375 63.125C125.542 63.0417 124.75 63.0833 124 63.25C123.583 63.3333 123.167 63.4583 122.75 63.625C122.333 63.7917 121.917 63.9583 121.5 64.125C121.25 64.125 121 64.125 120.75 64.125C120.5 64.0417 120.25 64.0417 120 64.125C119.667 64.2083 119.333 64.3333 119 64.5C118.75 64.6667 118.5 64.75 118.25 64.75C117.75 64.9167 117.25 64.9583 116.75 64.875C116.25 64.7917 115.792 64.875 115.375 65.125ZM180.75 64.625C180.75 65.2083 180.875 65.9583 181.125 66.875C181.375 67.7917 181.458 68.75 181.375 69.75C181.375 70.8333 181.333 71.8333 181.25 72.75C181.25 73.5833 180.833 74.1667 180 74.5C179.583 74.6667 179.042 74.75 178.375 74.75C177.792 74.75 177.25 74.9167 176.75 75.25C176.417 75.4167 176.167 75.75 176 76.25C175.833 76.75 175.542 77.0417 175.125 77.125C174.625 77.2917 174.083 77.3333 173.5 77.25C173 77.1667 172.5 77.1667 172 77.25C170.333 77.4167 168.625 77.625 166.875 77.875C165.208 78.0417 163.5 78.2083 161.75 78.375C161.833 81.125 162.083 83.8333 162.5 86.5C162.917 89.1667 163.042 91.625 162.875 93.875C162.625 94.4583 162.375 95.125 162.125 95.875C161.875 96.625 161.667 97.375 161.5 98.125C161.25 99.375 161.25 100.708 161.5 102.125C161.917 102.875 162.125 103.333 162.125 103.5C162.125 103.583 162.167 103.708 162.25 103.875C162.667 104.875 162.917 105.708 163 106.375C163.083 106.958 163.292 107.417 163.625 107.75C163.708 108.917 163.75 110.042 163.75 111.125C163.833 112.125 163.958 113.167 164.125 114.25C164.208 114.667 164.292 115.083 164.375 115.5C164.458 115.917 164.542 116.333 164.625 116.75C164.542 117.75 164.667 118.417 165 118.75C164.833 119.75 164.875 120.375 165.125 120.625C165.125 121.042 165.042 121.5 164.875 122C164.792 122.417 164.75 122.833 164.75 123.25C165.083 124.25 165.208 125 165.125 125.5C165.042 126 165 126.542 165 127.125C165.083 128.042 165.167 128.875 165.25 129.625C165.333 130.375 165.333 131.167 165.25 132C164.667 132.667 164.333 133.458 164.25 134.375C163.917 134.542 163.667 134.667 163.5 134.75C163.333 134.75 163.167 134.958 163 135.375C162.583 135.458 162.208 135.583 161.875 135.75C161.625 135.833 161.292 135.958 160.875 136.125C160.458 136.042 160.083 136.042 159.75 136.125C159.417 136.208 159.042 136.292 158.625 136.375C158.208 136.458 157.833 136.5 157.5 136.5C157.25 136.5 157 136.583 156.75 136.75C156.333 136.583 155.917 136.458 155.5 136.375C155.167 136.208 154.833 136 154.5 135.75C152.917 135.333 151.458 135.458 150.125 136.125C148.792 136.708 147.542 137.25 146.375 137.75C145.958 137.833 145.208 137.875 144.125 137.875C142.792 137.792 141.417 137.958 140 138.375C138.667 138.708 137.417 138.833 136.25 138.75C135.917 138.667 135.625 138.583 135.375 138.5C135.125 138.333 134.833 138.292 134.5 138.375C134.083 137.958 133.583 137.458 133 136.875C132.417 136.208 132.042 135.417 131.875 134.5C131.792 134.083 131.75 133.625 131.75 133.125C131.75 132.625 131.75 132.125 131.75 131.625C131.667 131.042 131.5 130.375 131.25 129.625C131.083 128.875 131.042 128.083 131.125 127.25C131.208 126.917 131.333 126.625 131.5 126.375C131.75 126.042 131.875 125.667 131.875 125.25C131.958 124.583 131.875 123.958 131.625 123.375C131.375 122.708 131.167 122.083 131 121.5C131.167 120.5 131.125 119.5 130.875 118.5C130.708 117.5 130.667 116.417 130.75 115.25C130.833 114.667 130.958 114.083 131.125 113.5C131.375 112.917 131.542 112.292 131.625 111.625C131.792 111.042 131.875 110.458 131.875 109.875C131.875 109.292 131.917 108.667 132 108C132.167 107.083 132.167 106.125 132 105.125C131.833 103.792 131.5 102.667 131 101.75C130.5 100.75 130.083 99.625 129.75 98.375C129.583 95.4583 129.375 92.5 129.125 89.5C128.958 86.4167 128.708 83.4583 128.375 80.625C127.542 80.4583 126.708 80.4167 125.875 80.5C125.125 80.5 124.375 80.5417 123.625 80.625C122.958 80.625 122.292 80.5833 121.625 80.5C121.042 80.3333 120.5 80 120 79.5C119.75 79.25 119.5 78.9583 119.25 78.625C119.083 78.2917 118.75 78.3333 118.25 78.75C118 78.8333 117.708 79.2083 117.375 79.875C117.208 80.0417 117.042 80.2917 116.875 80.625C116.708 80.875 116.542 81.0833 116.375 81.25C115.875 81.6667 115.292 81.8333 114.625 81.75C113.958 81.5833 113.292 81.7083 112.625 82.125C111.708 81.7083 110.875 81.1667 110.125 80.5C109.458 79.75 109.125 78.6667 109.125 77.25C109.208 75.5833 109.167 74.2083 109 73.125C108.833 72.0417 108.792 71 108.875 70C108.875 69.25 108.958 68.5417 109.125 67.875C109.375 67.2083 109.958 66.8333 110.875 66.75C111.792 66.5833 112.583 66.4167 113.25 66.25C113.583 66.5 113.875 66.625 114.125 66.625C114.458 66.625 114.792 66.6667 115.125 66.75C115.708 66.9167 116.292 67.125 116.875 67.375C117.458 67.5417 117.958 67.625 118.375 67.625C118.875 67.625 119.542 67.5417 120.375 67.375C120.708 67.375 121 67.375 121.25 67.375C121.583 67.2917 121.958 67.25 122.375 67.25C123.208 67.0833 124 66.8333 124.75 66.5C125.5 66.1667 126.333 65.9167 127.25 65.75C127.833 65.5833 128.333 65.5417 128.75 65.625C129.25 65.625 129.792 65.5833 130.375 65.5C130.625 65.5 130.875 65.4583 131.125 65.375C131.375 65.2917 131.625 65.25 131.875 65.25C132.542 65.1667 133.125 65.1667 133.625 65.25C134.208 65.25 134.833 65.2083 135.5 65.125C136.167 65.0417 136.792 64.9583 137.375 64.875C137.958 64.7083 138.583 64.5833 139.25 64.5C140.833 64.5 142.167 64.4167 143.25 64.25C144.417 64 145.542 63.7917 146.625 63.625C147.042 63.5417 147.5 63.5417 148 63.625C148.5 63.625 149 63.625 149.5 63.625C150.083 63.5417 150.542 63.5417 150.875 63.625C151.208 63.625 151.583 63.75 152 64C152.25 64.1667 152.458 64.375 152.625 64.625C152.875 64.7917 153.125 64.9583 153.375 65.125C154.625 65.2917 155.708 65.1667 156.625 64.75C157.208 64.25 157.625 64 157.875 64C159.208 63.25 160.458 62.9583 161.625 63.125C162.292 63.125 162.917 63.1667 163.5 63.25C164.083 63.25 164.708 63.2083 165.375 63.125C165.958 63.0417 166.542 62.9583 167.125 62.875C167.708 62.7083 168.333 62.5833 169 62.5C169.417 62.6667 169.792 62.8333 170.125 63C170.542 63.0833 170.958 63.0417 171.375 62.875C172.208 62.4583 172.833 62.3333 173.25 62.5C173.667 62.5833 174.208 62.625 174.875 62.625C175.542 62.625 176.208 62.625 176.875 62.625C177.542 62.5417 178.292 62.4583 179.125 62.375C179.458 62.7083 179.75 63.0417 180 63.375C180.333 63.7083 180.583 64.125 180.75 64.625ZM131.75 76.625C133.167 77.2917 133.958 78.0417 134.125 78.875C134.292 79.625 134.292 80.5417 134.125 81.625C135.125 81.9583 135.917 82.0833 136.5 82C137.167 81.8333 137.583 81.4167 137.75 80.75C137.917 80.3333 138 79.7083 138 78.875C138 78.0417 137.917 77.3333 137.75 76.75C137.667 75.8333 137.208 75.1667 136.375 74.75C136.125 74.6667 135.708 74.6667 135.125 74.75C134.542 74.8333 133.958 74.9583 133.375 75.125C132.875 75.2917 132.417 75.5 132 75.75C131.667 76 131.583 76.2917 131.75 76.625ZM133.75 88.875C133.583 89.2917 133.5 89.7917 133.5 90.375C133.583 90.875 133.708 91.3333 133.875 91.75C134.458 92.1667 135 92.2917 135.5 92.125C136 91.875 136.375 91.5417 136.625 91.125C136.958 90.7083 137.167 90.2083 137.25 89.625C137.417 89.0417 137.417 88.5 137.25 88C137.083 87.75 136.833 87.5 136.5 87.25C136.25 87 136.042 86.875 135.875 86.875C135.542 86.9583 135.125 87.2083 134.625 87.625C134.208 88.0417 133.917 88.4583 133.75 88.875ZM141.625 133.75C142.042 133.583 142.417 133.292 142.75 132.875C143.167 132.375 143.375 131.958 143.375 131.625C143.292 131.458 143.083 131.292 142.75 131.125C142.417 130.958 142.167 130.792 142 130.625C141.583 130.458 141.167 130.333 140.75 130.25C140.333 130.083 140 129.792 139.75 129.375C139.5 128.708 139.417 128.125 139.5 127.625C139.583 127.125 139.417 126.625 139 126.125C138.667 126.125 138.458 126.167 138.375 126.25C138.292 126.25 138.042 126.292 137.625 126.375C137.375 126.792 137.125 127.458 136.875 128.375C136.708 129.208 136.667 130.042 136.75 130.875C136.833 131.708 137.083 132.417 137.5 133C137.917 133.583 138.583 133.75 139.5 133.5C139.833 133.667 140.167 133.792 140.5 133.875C140.833 133.958 141.208 133.917 141.625 133.75ZM149.125 132.375C149.625 132.292 150.125 132.083 150.625 131.75C151.125 131.333 151.333 130.792 151.25 130.125C150.083 129.542 149.292 129.417 148.875 129.75C148.458 130.083 148.167 130.458 148 130.875C147.833 131.292 147.792 131.667 147.875 132C148.042 132.333 148.458 132.458 149.125 132.375ZM171.625 69.375C172.542 69.625 173.417 69.625 174.25 69.375C175.083 69.125 175.625 68.5417 175.875 67.625C174.458 66.7083 173.375 66.5 172.625 67C171.958 67.4167 171.458 67.9167 171.125 68.5L171.625 69.375ZM119.75 82.875C120.333 82.9583 120.667 83.375 120.75 84.125C120.917 84.7917 121 85.4583 121 86.125C120.75 86.5417 120.333 86.9167 119.75 87.25C118.5 87.0833 117.583 87.0417 117 87.125C116.5 87.2083 115.917 87.2917 115.25 87.375C115 87.4583 114.75 87.5 114.5 87.5C114.25 87.4167 114.042 87.4167 113.875 87.5C113.458 87.5833 112.958 87.7083 112.375 87.875C111.792 88.0417 111.167 88 110.5 87.75C110.083 88.1667 109.542 88.125 108.875 87.625C108.208 87.125 107.75 86.6667 107.5 86.25C107.167 85.6667 107 85 107 84.25C107 83.5 107.083 82.7917 107.25 82.125C107.667 82.0417 108.042 82.125 108.375 82.375C108.708 82.5417 109 82.7917 109.25 83.125C109.5 83.375 109.75 83.7083 110 84.125C110.25 84.4583 110.542 84.7083 110.875 84.875C111.292 84.875 111.667 84.75 112 84.5C112.417 84.1667 112.875 84 113.375 84C113.792 84 114.167 84.0417 114.5 84.125C114.833 84.2083 115.208 84.2083 115.625 84.125C115.958 84.0417 116.292 83.9583 116.625 83.875C116.958 83.7083 117.292 83.5833 117.625 83.5C118.208 83.5 118.625 83.4167 118.875 83.25C119.125 83 119.417 82.875 119.75 82.875ZM123 84C123.5 83.5 124.083 83.4583 124.75 83.875C125.5 84.2083 125.917 84.5833 126 85C126.083 85.4167 125.958 85.7917 125.625 86.125C125.375 86.375 125.208 86.7083 125.125 87.125C124.292 86.7083 123.667 86.2917 123.25 85.875C122.917 85.375 122.833 84.75 123 84ZM168 134.125C168.167 134.125 168.375 134.333 168.625 134.75C168.875 135.167 169.042 135.542 169.125 135.875C169.208 136.292 169.083 136.833 168.75 137.5C168.5 138.083 168.292 138.625 168.125 139.125C167.625 140.208 167 140.875 166.25 141.125C165.583 141.375 164.833 141.5 164 141.5L160.75 141.375C159.917 141.375 159.125 141.458 158.375 141.625C157.625 141.708 156.917 141.833 156.25 142C155.833 141.833 155.417 141.542 155 141.125C154.667 140.708 154.583 140.25 154.75 139.75C155.333 139.417 155.958 139.292 156.625 139.375C157.375 139.375 158.125 139.333 158.875 139.25C159.542 139.167 160.167 139 160.75 138.75C161.333 138.5 161.958 138.292 162.625 138.125C163.208 137.958 163.792 137.833 164.375 137.75C164.958 137.583 165.5 137.375 166 137.125C166.167 137.042 166.292 136.833 166.375 136.5C166.542 136.083 166.667 135.708 166.75 135.375C166.917 135.042 167.083 134.75 167.25 134.5C167.5 134.25 167.75 134.125 168 134.125ZM150.375 140.625C150.625 140.208 150.917 139.958 151.25 139.875C151.583 139.708 151.875 139.667 152.125 139.75C152.458 139.833 152.667 140.042 152.75 140.375C152.917 140.708 152.833 141.083 152.5 141.5C152.167 141.583 151.833 141.667 151.5 141.75C151.167 141.75 150.875 141.667 150.625 141.5L150.375 140.625Z" fill="white"/>
</svg>
